<?xml version="1.0" encoding="UTF-8" standalone="no"?>
<!-- Generator: Adobe Illustrator 16.0.0, SVG Export Plug-In . SVG Version: 6.00 Build 0)  -->

<svg
   xmlns:dc="http://purl.org/dc/elements/1.1/"
   xmlns:cc="http://creativecommons.org/ns#"
   xmlns:rdf="http://www.w3.org/1999/02/22-rdf-syntax-ns#"
   xmlns:svg="http://www.w3.org/2000/svg"
   xmlns="http://www.w3.org/2000/svg"
   xmlns:xlink="http://www.w3.org/1999/xlink"
   xmlns:sodipodi="http://sodipodi.sourceforge.net/DTD/sodipodi-0.dtd"
   xmlns:inkscape="http://www.inkscape.org/namespaces/inkscape"
   version="1.1"
   id="圖層_1"
   inkscape:version="0.92.4 (5da689c313, 2019-01-14)"
   sodipodi:docname="logo-opencloud2.svg"
   x="0px"
   y="0px"
   width="136.076px"
   height="100px"
   viewBox="228.92 371.866 136.076 100"
   enable-background="new 228.92 371.866 136.076 100"
   xml:space="preserve"><metadata
   id="metadata3729"><rdf:RDF><cc:Work
       rdf:about=""><dc:format>image/svg+xml</dc:format><dc:type
         rdf:resource="http://purl.org/dc/dcmitype/StillImage" /><dc:title></dc:title></cc:Work></rdf:RDF></metadata><defs
   id="defs3727"><linearGradient
     inkscape:collect="always"
     id="linearGradient6303"><stop
       style="stop-color:#ff3d54;stop-opacity:1"
       offset="0"
       id="stop6299" /><stop
       style="stop-color:#b80c20;stop-opacity:1"
       offset="1"
       id="stop6301" /></linearGradient><linearGradient
     inkscape:collect="always"
     xlink:href="#linearGradient6303"
     id="linearGradient6305"
     x1="363.84167"
     y1="372.72687"
     x2="363.57413"
     y2="471.33511"
     gradientUnits="userSpaceOnUse" /></defs>
<sodipodi:namedview
   inkscape:current-layer="layer6"
   inkscape:window-y="-8"
   inkscape:window-x="-8"
   inkscape:pageopacity="0"
   inkscape:pageshadow="2"
   inkscape:window-width="1920"
   inkscape:window-height="1017"
   id="namedview4498"
   pagecolor="#ffffff"
   inkscape:window-maximized="1"
   borderopacity="1"
   guidetolerance="10"
   showgrid="false"
   inkscape:cx="35.26784"
   bordercolor="#666666"
   objecttolerance="10"
   inkscape:cy="50.655404"
   inkscape:zoom="5.9224253"
   gridtolerance="10"
   showguides="false">
	</sodipodi:namedview>
<g
   id="g4495">
	<g
   id="use4488">
		
	</g>
</g>
<g
   inkscape:groupmode="layer"
   id="layer3"
   inkscape:label="Layer 1"
   style="display:none"
   sodipodi:insensitive="true"><path
     inkscape:connector-curvature="0"
     style="fill:#d41818"
     id="SVGID_1_"
     d="m 247.92599,452.843 c -12.97099,-12.963 -12.97099,-33.948 -0.004,-46.904 6.249,-6.253 14.542,-9.704 23.378,-9.735 l 0.13,-0.004 c 1.665,0 3.313,0.119 4.924,0.356 1.736,0.257 3.438,0.655 5.107,1.175 3.124,0.989 6.083,2.437 8.804,4.317 1.271,0.879 2.498,1.847 3.652,2.914 0.345,0.322 0.685,0.642 1.02101,0.978 l 2.28299,2.283 11.06,11.063 c 1.813,1.811 1.813,4.751 0,6.568 -0.899,0.896 -2.09,1.36 -3.27599,1.36 -1.19001,0 -2.37701,-0.465 -3.28001,-1.36 l -11.19,-11.188 -2.32799,-2.323 c -0.34901,-0.354 -0.721,-0.683 -1.09201,-1.009 -3.223,-2.8 -7.08099,-4.662 -11.22999,-5.432 -1.45501,-0.273 -2.94501,-0.417 -4.44901,-0.417 -0.232,0 -0.457,0.009 -0.689,0.014 -6.14099,0.17 -11.897,2.641 -16.257,7.005 -9.346,9.344 -9.346,24.441 0,33.787 4.525,4.521 10.55,7.009 16.946,7.009 h 4.226 l 3.907,3.796 c 1.983,1.979 4.104,3.885 6.347,5.487 h -14.48 c -8.88299,0 -17.231,-3.464 -23.51,-9.74 m 40.883,-62.223 c 7.546,-6.315 16.847,-9.473 26.15301,-9.473 10.43799,0 20.89,3.97 28.834,11.922 15.912,15.901 15.908,41.771 0.005,57.68 -4.238,4.234 -9.247,7.412 -14.694,9.426 -1.70601,0.636 -3.45601,1.138 -5.23701,1.54 -2.654,0.591 -5.38899,0.904 -8.164,0.967 -0.255,0 -0.492,0.018 -0.743,0.018 -9.56399,0 -18.625,-3.276 -25.902,-9.283 -1.016,-0.832 -1.992,-1.728 -2.936,-2.667 l -1.974,-1.97 -4.64599,-4.646 -12.47001,-12.471 c -1.813,-1.817 -1.813,-4.753 0,-6.562 0.904,-0.913 2.09501,-1.37 3.286,-1.37 1.186,0 2.372,0.457 3.281,1.37 l 19.027,19.022 0.058,0.054 c 1.777,1.772 3.729,3.313 5.81,4.593 4.905,3.017 10.563,4.646 16.467,4.646 2.654,0 5.255,-0.331 7.76201,-0.967 1.56599,-0.394 3.09299,-0.913 4.56099,-1.539 3.68001,-1.558 7.04601,-3.832 9.95001,-6.732 12.291,-12.281 12.287,-32.265 0,-44.554 -6.141,-6.143 -14.20601,-9.209 -22.27201,-9.209 -6.141,0 -12.286,1.784 -17.577,5.344 -2.67,-2.057 -5.54,-3.78 -8.579,-5.139 m -9.247,-4.115 -1.01599,1.014 c -2.332,-0.39 -4.70401,-0.6 -7.12101,-0.6 -11.35999,0 -22.03999,4.422 -30.07,12.457 -16.58299,16.579 -16.57899,43.45 0.005,60.029 8.034,8.039 18.714,12.461 30.065,12.461 h 43.534 0.38 c 0.116,0 0.242,0 0.354,-0.009 13.097,-0.188 25.37901,-5.264 34.66701,-14.547 19.52,-19.524 19.515,-51.284 -0.005,-70.805 -9.444,-9.442 -22.018,-14.639 -35.40001,-14.639 -13.381,0 -25.949,5.197 -35.393,14.639" /></g><g
   inkscape:groupmode="layer"
   id="layer6"
   inkscape:label="Layer 3"
   style="opacity:1"><path
     style="fill:url(#linearGradient6305);fill-opacity:1;fill-rule:evenodd;stroke:none;stroke-width:1px;stroke-linecap:butt;stroke-linejoin:miter;stroke-opacity:1"
     d="m 278.546,387.519 c 0,0 -38.0621,-4.6642 -47.5544,30.76157 -5.85192,21.83964 4.14321,52.89489 41.57015,53.58543 14.93294,0.27552 26.33387,0.16496 42.00069,0.16496 26.00541,0 49.01168,-21.71391 49.01168,-44.76836 -0.1311,-29.93013 -16.45022,-54.66393 -44.84255,-54.91583 -34.03992,0 -40.18557,15.17223 -40.18557,15.17223 z"
     id="path3813"
     inkscape:connector-curvature="0"
     sodipodi:nodetypes="csssccc" /></g><g
   inkscape:groupmode="layer"
   id="layer4"
   inkscape:label="Layer 2"><path
     style="fill:#ffffff;fill-rule:evenodd;stroke:none;stroke-width:1px;stroke-linecap:butt;stroke-linejoin:miter;stroke-opacity:1"
     d="m 242.32249,408.94248 5.67892,10.22652 c 0,0 -1.99789,8.44966 0.952,17.30033 2.94989,8.85067 10.84757,18.10236 23.88471,17.68024 23.18979,-0.75085 22.09709,-17.26335 22.09709,-22.64951 0,-5.38617 -1.31649,-15.1285 -12.42961,-21.54466 -10.14069,-5.85473 -19.68022,0.48337 -25.41165,-5.24806 -5.73144,-5.73143 8.41604,-7.87429 16.17574,-6.73372 7.97262,1.17187 31.33299,2.79158 31.33299,34.7694 0,35.49344 -35.08531,38.71534 -52.89489,24.30679 -4.71794,-3.81697 -11.49656,-12.84671 -13.38102,-24.13037 -1.88445,-11.28365 3.99572,-23.97696 3.99572,-23.97696 z"
     id="path3733"
     inkscape:connector-curvature="0"
     sodipodi:nodetypes="ccsssssssssc" /><path
     style="opacity:1;fill:#ffffff;fill-rule:evenodd;stroke:none;stroke-width:1px;stroke-linecap:butt;stroke-linejoin:miter;stroke-opacity:1"
     d="m 311.21246,387.08846 -6.62912,-6.2148 c 0,0 -48.51,30.2669 -27.77503,66.18091 16.93259,29.3281 60.03436,16.69104 69.94854,-0.48083 7.58445,-13.13666 6.14473,-18.2398 5.11622,-27.49834 -1.0131,-9.11984 -6.26093,-12.86809 -8.41876,-9.13062 -2.15783,3.73747 -0.35474,6.67652 -0.35474,16.11755 0,18.2301 -14.50121,29.41675 -30.65971,29.41675 -16.15849,0 -32.17888,-9.52937 -32.17888,-28.58811 0,-19.05873 30.95148,-39.80251 30.95148,-39.80251 z"
     id="path3735"
     inkscape:connector-curvature="0"
     sodipodi:nodetypes="ccsssssssc" /></g></svg>