<?xml version="1.0" encoding="utf-8"?>
<!-- Generator: Adobe Illustrator 23.0.1, SVG Export Plug-In . SVG Version: 6.00 Build 0)  -->
<svg version="1.1" id="Layer_1" xmlns="http://www.w3.org/2000/svg" xmlns:xlink="http://www.w3.org/1999/xlink" x="0px" y="0px"
	 viewBox="0 0 299.13 438.96" enable-background="new 0 0 299.13 438.96" xml:space="preserve">
<g>
	<linearGradient id="SVGID_1_" gradientUnits="userSpaceOnUse" x1="72.2165" y1="81.8008" x2="293.3162" y2="81.8008">
		<stop  offset="0" style="stop-color:#FFFFFF"/>
		<stop  offset="1" style="stop-color:#000000"/>
	</linearGradient>
	<path fill="url(#SVGID_1_)" d="M200.1,38.89c46.79,23.3,93.21,51.52,93.21,78.65S110.14,90.41,75.71,72.67
		s197.22,61.61,197.22,36.52S190.94,34.33,200.1,38.89z"/>
	<linearGradient id="SVGID_2_" gradientUnits="userSpaceOnUse" x1="69.7165" y1="81.8008" x2="295.8162" y2="81.8008">
		<stop  offset="0" style="stop-color:#000000"/>
		<stop  offset="1" style="stop-color:#FFFFFF"/>
	</linearGradient>
	<path fill="none" stroke="url(#SVGID_2_)" stroke-width="5" stroke-miterlimit="10" d="M200.1,38.89
		c46.79,23.3,93.21,51.52,93.21,78.65S110.14,90.41,75.71,72.67s197.22,61.61,197.22,36.52S190.94,34.33,200.1,38.89z"/>
</g>
<g>
	<linearGradient id="SVGID_3_" gradientUnits="userSpaceOnUse" x1="5.2055" y1="77.0109" x2="215.0119" y2="77.0109">
		<stop  offset="0" style="stop-color:#FFFFFF"/>
		<stop  offset="1" style="stop-color:#000000"/>
	</linearGradient>
	<path fill="url(#SVGID_3_)" d="M215.01,79.89C198.32,68.07,113.27,3.78,68.06,3.78c-25.04,0-68.81,8.24-62.17,64.37
		c5.83,49.3,176.88,82.09,176.88,82.09S-15.42,96.85,37.45,36.33C67.76,1.62,215.01,79.89,215.01,79.89z"/>
	<linearGradient id="SVGID_4_" gradientUnits="userSpaceOnUse" x1="2.7055" y1="76.9885" x2="216.4569" y2="76.9885">
		<stop  offset="0" style="stop-color:#000000"/>
		<stop  offset="1" style="stop-color:#FFFFFF"/>
	</linearGradient>
	<path fill="none" stroke="url(#SVGID_4_)" stroke-width="5" stroke-miterlimit="10" d="M215.01,79.89
		C198.32,68.07,113.27,3.78,68.06,3.78c-25.04,0-68.81,8.24-62.17,64.37c5.83,49.3,176.88,82.09,176.88,82.09
		S-15.42,96.85,37.45,36.33C67.76,1.62,215.01,79.89,215.01,79.89z"/>
</g>
<g>
	<linearGradient id="SVGID_5_" gradientUnits="userSpaceOnUse" x1="84.0553" y1="259.0096" x2="238.5266" y2="259.0096">
		<stop  offset="0" style="stop-color:#FFFFFF"/>
		<stop  offset="1" style="stop-color:#000000"/>
	</linearGradient>
	<path fill="url(#SVGID_5_)" d="M135.53,121.72c0,0,100.17-2.09,102.96,11.83c2.78,13.91-154.43,262.87-154.43,262.87
		S230.14,143.98,214.84,141.2S135.53,121.72,135.53,121.72z"/>
	<linearGradient id="SVGID_6_" gradientUnits="userSpaceOnUse" x1="81.8915" y1="258.4271" x2="241.0266" y2="258.4271">
		<stop  offset="0" style="stop-color:#000000"/>
		<stop  offset="1" style="stop-color:#FFFFFF"/>
	</linearGradient>
	<path fill="none" stroke="url(#SVGID_6_)" stroke-width="5" stroke-miterlimit="10" d="M135.53,121.72
		c0,0,100.17-2.09,102.96,11.83c2.78,13.91-154.43,262.87-154.43,262.87S230.14,143.98,214.84,141.2S135.53,121.72,135.53,121.72z"
		/>
</g>
<g>
	<linearGradient id="SVGID_7_" gradientUnits="userSpaceOnUse" x1="34.4466" y1="302.0978" x2="186.0988" y2="302.0978">
		<stop  offset="0" style="stop-color:#FFFFFF"/>
		<stop  offset="1" style="stop-color:#000000"/>
	</linearGradient>
	<polygon fill="url(#SVGID_7_)" points="186.1,171.11 167.32,168.11 34.45,436.09 	"/>
	<linearGradient id="SVGID_8_" gradientUnits="userSpaceOnUse" x1="32.2068" y1="301.3393" x2="190.0656" y2="301.3393">
		<stop  offset="0" style="stop-color:#000000"/>
		<stop  offset="1" style="stop-color:#FFFFFF"/>
	</linearGradient>
	<polygon fill="none" stroke="url(#SVGID_8_)" stroke-width="5" stroke-miterlimit="10" points="186.1,171.11 167.32,168.11 
		34.45,436.09 	"/>
</g>
<g>
	<linearGradient id="SVGID_9_" gradientUnits="userSpaceOnUse" x1="72.2165" y1="225.6685" x2="145.2727" y2="225.6685">
		<stop  offset="0" style="stop-color:#FFFFFF"/>
		<stop  offset="1" style="stop-color:#000000"/>
	</linearGradient>
	<polygon fill="url(#SVGID_9_)" points="145.27,155.8 116.75,150.24 72.22,301.1 	"/>
	<linearGradient id="SVGID_10_" gradientUnits="userSpaceOnUse" x1="69.8188" y1="224.7853" x2="148.9873" y2="224.7853">
		<stop  offset="0" style="stop-color:#000000"/>
		<stop  offset="1" style="stop-color:#FFFFFF"/>
	</linearGradient>
	<polygon fill="none" stroke="url(#SVGID_10_)" stroke-width="5" stroke-miterlimit="10" points="145.27,155.8 116.75,150.24 
		72.22,301.1 	"/>
</g>
</svg>
